<?xml version="1.0" encoding="iso-8859-1"?>
<!-- Generator: Adobe Illustrator 19.0.0, SVG Export Plug-In . SVG Version: 6.00 Build 0)  -->
<svg version="1.1" id="Capa_1" xmlns="http://www.w3.org/2000/svg" xmlns:xlink="http://www.w3.org/1999/xlink" x="0px" y="0px"
	 viewBox="0 0 512 512" style="enable-background:new 0 0 512 512;" xml:space="preserve">
<g>
	<g>
		<path d="M348.271,31.319V13.832H163.729v17.487H113v33.545c0,38.818,31.476,70.413,70.245,70.625
			c11.979,12.882,28.553,21.422,47.088,22.999v62.857h-42.667v39.82h136.667v-39.82h-42.667v-62.857
			c18.536-1.578,35.109-10.118,47.088-22.999C367.523,135.277,399,103.681,399,64.864V31.319H348.271z M143,64.864v-3.545h20.729
			v24.626c0,5.208,0.561,10.286,1.604,15.187C152.097,94.426,143,80.689,143,64.864z M369,64.864
			c0,15.826-9.097,29.562-22.334,36.268c1.044-4.901,1.604-9.979,1.604-15.187V61.319H369V64.864z"/>
	</g>
</g>
<g>
	<g>
		<rect y="397.689" width="130.67" height="100.48"/>
	</g>
</g>
<g>
	<g>
		<rect x="381.33" y="351.788" width="130.67" height="146.38"/>
	</g>
</g>
<g>
	<g>
		<rect x="160.67" y="291.168" width="190.67" height="207"/>
	</g>
</g>
<g>
</g>
<g>
</g>
<g>
</g>
<g>
</g>
<g>
</g>
<g>
</g>
<g>
</g>
<g>
</g>
<g>
</g>
<g>
</g>
<g>
</g>
<g>
</g>
<g>
</g>
<g>
</g>
<g>
</g>
</svg>
