<?xml version="1.0" encoding="iso-8859-1"?>
<!-- Generator: Adobe Illustrator 19.0.0, SVG Export Plug-In . SVG Version: 6.00 Build 0)  -->
<svg version="1.1" id="Capa_1" xmlns="http://www.w3.org/2000/svg" xmlns:xlink="http://www.w3.org/1999/xlink" x="0px" y="0px"
	 viewBox="0 0 512 512" style="enable-background:new 0 0 512 512;" xml:space="preserve">
<g>
	<g>
		<path d="M507.415,455.435c-2.9-4.832,23.629,18.219-317.496-268.18c-0.183,0.457-0.185,0.915-0.374,1.372
			c-3.932,11.549-12.237,24.444-23.348,35.556c-12.266,12.266-26.126,20.848-41.228,25.526c-0.633,0.251-1.473,0.36-2.137,0.594
			c60.617,91.206,153.452,231.022,153.452,231.022c0.644,1.228,1.462,2.353,2.412,3.362c18.83,19.795,72.12,26.813,112.047,26.813
			c12.251,0,119.766-1.258,119.766-44.912C510.509,461.005,508.716,458.055,507.415,455.435z M390.743,481.559
			c-46.12,0-77.97-8.796-87.254-14.801c17.419-11.08,61.685-15.14,87.254-15.14c23.448,0,62.003,3.425,82.661,12.741l3.419,2.872
			C465.693,473.416,435.961,481.559,390.743,481.559z"/>
	</g>
</g>
<g>
	<g>
		<path d="M510.129,104.329c-2.456-10.643-7.881-20.38-15.6-28.099c-11.155-11.36-26.082-17.647-42.033-17.719
			c-15.585,1.141-31.257,6.199-42.69,17.632l-52.968,52.661c-0.044,0.042-0.055,0.103-0.097,0.146
			c-0.042,0.04-0.095,0.062-0.137,0.103c-19.396,20.126-10.227,52.8,10.98,73.962c18.863,18.863,47.161,29.413,69.053,14.095
			c1.86-0.731,3.609-1.816,5.113-3.32c0.059-0.059,0.117-0.117,0.161-0.161l52.705-53.011C505.83,149.021,512,134.066,512,118.466
			C512,114.723,511.766,109.037,510.129,104.329z M420.593,192.596l-0.018,0.024c-3.057,3.05-9.44,1.84-12.376,1.095
			c-6.272-1.462-13.363-5.79-19.444-11.872c-4.269-4.269-7.369-8.508-9.473-13.187c-3.933-7.88-4.386-15.438-1.448-18.509
			c4.86-4.762,20.5-1.027,32.061,10.731C420.953,171.746,425.814,187.316,420.593,192.596z"/>
	</g>
</g>
<g>
	<g>
		<path d="M156.019,128.846c-0.073-0.059-0.146-0.132-0.22-0.205l-52.602-52.325c-22.105-22.836-63.012-22.69-84.824-0.176
			c-8.26,8.26-13.904,18.597-16.345,29.985c-4.152,19.854,1.959,40.292,16.345,54.664c57.676,57.676,53.642,54.598,58.192,56.351
			c22.456,15.526,50.948,3.588,68.664-14.128C165.34,182.902,175.923,148.776,156.019,128.846z M134.367,165.865
			c-0.176,0.38-0.321,0.76-0.438,1.155c-1.608,4.796-5.102,10.058-9.869,14.825c-5.249,5.234-10.98,8.919-17.529,10.98
			c-5.965,2.324-11.564,2.208-14.122-0.336c-0.969-0.944-2.091-3.524-2.091-6.491c-0.015-6.141,3.304-15.966,12.792-25.293
			c12.475-12.694,27.388-15.024,31.725-10.687C137.48,152.662,137.291,159.037,134.367,165.865z"/>
	</g>
</g>
<g>
	<g>
		<path d="M207.076,431.712l-61.195-91.27C69.232,404.268,14.048,450.025,14.048,450.025c-4.162,3.501-6.857,10.574-6.857,16.565
			c0,43.655,107.515,44.912,119.766,44.912c41.37,0,94.795-7.478,113.783-29.581L207.076,431.712z M126.956,481.559
			c-45.833,0-75.76-8.378-86.535-14.576c10.179-8.531,50.647-15.366,86.535-15.366c24.362,0,68.273,3.447,87.135,14.927
			C203.828,472.787,173.506,481.559,126.956,481.559z"/>
	</g>
</g>
<g>
	<g>
		<path d="M104.795,0.499H14.971C6.696,0.499,0,7.194,0,15.469V51.24c15.486-13.733,36.552-21.955,58.948-21.955
			c23.095,0,44.87,8.677,60.818,23.508V15.469C119.766,7.194,113.07,0.499,104.795,0.499z"/>
	</g>
</g>
<g>
	<g>
		<path d="M495.538,0.499h-89.825c-8.275,0-14.971,6.696-14.971,14.971v37.767c15.177-14.227,35.634-22.841,59.576-24.594
			c23.719,0.04,44.068,8.089,60.19,22.121V15.469C510.509,7.194,503.813,0.499,495.538,0.499z"/>
	</g>
</g>
<g>
	<g>
		<path d="M393.681,251.815c-16.301-3.802-33.304-13.655-47.266-27.632c-9.416-9.401-16.666-19.65-21.506-30.467
			c-0.475-0.945-0.561-1.955-0.998-2.909l-41.491,34.523l82.873,69.028l28.426-42.537
			C393.72,251.82,393.694,251.818,393.681,251.815z"/>
	</g>
</g>
<g>
</g>
<g>
</g>
<g>
</g>
<g>
</g>
<g>
</g>
<g>
</g>
<g>
</g>
<g>
</g>
<g>
</g>
<g>
</g>
<g>
</g>
<g>
</g>
<g>
</g>
<g>
</g>
<g>
</g>
</svg>
